<?xml version="1.0" encoding="UTF-8"?>
<!DOCTYPE svg PUBLIC "-//W3C//DTD SVG 1.1//EN" "http://www.w3.org/Graphics/SVG/1.1/DTD/svg11.dtd">
<svg xmlns="http://www.w3.org/2000/svg" version="1.1" width="1266px" height="988px" style="shape-rendering:geometricPrecision; text-rendering:geometricPrecision; image-rendering:optimizeQuality; fill-rule:evenodd; clip-rule:evenodd" xmlns:xlink="http://www.w3.org/1999/xlink">
<g><path style="opacity:0.737" fill="#c981d0" d="M 614.5,77.5 C 613.4,78.5585 612.066,79.3918 610.5,80C 610.728,80.3988 611.062,80.5654 611.5,80.5C 611.5,80.8333 611.5,81.1667 611.5,81.5C 610.833,81.5 610.167,81.5 609.5,81.5C 609.179,79.9519 608.179,79.2852 606.5,79.5C 608.961,78.469 611.627,77.8023 614.5,77.5 Z"/></g>
<g><path style="opacity:1" fill="#be3cda" d="M 652.5,77.5 C 652.672,78.4916 652.338,79.1583 651.5,79.5C 650.5,79.5 649.5,79.5 648.5,79.5C 639.167,79.5 629.833,79.5 620.5,79.5C 617.43,79.3677 614.43,79.701 611.5,80.5C 611.062,80.5654 610.728,80.3988 610.5,80C 612.066,79.3918 613.4,78.5585 614.5,77.5C 627.169,76.2404 639.836,76.2404 652.5,77.5 Z"/></g>
<g><path style="opacity:0.804" fill="#bd38d6" d="M 606.5,79.5 C 608.179,79.2852 609.179,79.9519 609.5,81.5C 608.167,81.5 606.833,81.5 605.5,81.5C 602.505,81.2938 599.838,81.9605 597.5,83.5C 596.833,83.5 596.167,83.5 595.5,83.5C 593.007,83.8693 592.34,83.2027 593.5,81.5C 597.704,80.0898 602.037,79.4231 606.5,79.5 Z"/></g>
<g><path style="opacity:1" fill="#b066be" d="M 652.5,77.5 C 656.04,77.7526 659.373,78.4192 662.5,79.5C 660.585,79.2155 658.919,79.5489 657.5,80.5C 655.265,80.7947 653.265,80.4614 651.5,79.5C 652.338,79.1583 652.672,78.4916 652.5,77.5 Z"/></g>
<g><path style="opacity:0.098" fill="#f3d6f7" d="M 620.5,79.5 C 617.877,81.2655 614.877,81.9321 611.5,81.5C 611.5,81.1667 611.5,80.8333 611.5,80.5C 614.43,79.701 617.43,79.3677 620.5,79.5 Z"/></g>
<g><path style="opacity:0.085" fill="#fde1fd" d="M 648.5,79.5 C 649.5,79.5 650.5,79.5 651.5,79.5C 653.265,80.4614 655.265,80.7947 657.5,80.5C 657.5,80.8333 657.5,81.1667 657.5,81.5C 654.123,81.9321 651.123,81.2655 648.5,79.5 Z"/></g>
<g><path style="opacity:1" fill="#c532de" d="M 662.5,79.5 C 664.167,79.5 665.833,79.5 667.5,79.5C 667.611,80.1174 667.944,80.6174 668.5,81C 666.866,81.4935 665.199,81.6602 663.5,81.5C 661.5,81.5 659.5,81.5 657.5,81.5C 657.5,81.1667 657.5,80.8333 657.5,80.5C 658.919,79.5489 660.585,79.2155 662.5,79.5 Z"/></g>
<g><path style="opacity:1" fill="#ce9ad5" d="M 667.5,79.5 C 669.403,79.7959 671.07,80.4625 672.5,81.5C 670.821,81.2852 669.821,81.9519 669.5,83.5C 667.102,83.7406 665.102,83.0739 663.5,81.5C 665.199,81.6602 666.866,81.4935 668.5,81C 667.944,80.6174 667.611,80.1174 667.5,79.5 Z"/></g>
<g><path style="opacity:0.82" fill="#cb36e5" d="M 672.5,81.5 C 673.5,81.5 674.5,81.5 675.5,81.5C 675.179,83.0481 674.179,83.7148 672.5,83.5C 671.5,83.5 670.5,83.5 669.5,83.5C 669.821,81.9519 670.821,81.2852 672.5,81.5 Z"/></g>
<g><path style="opacity:0.094" fill="#f5cef8" d="M 605.5,81.5 C 603.22,83.2227 600.553,83.8893 597.5,83.5C 599.838,81.9605 602.505,81.2938 605.5,81.5 Z"/></g>
<g><path style="opacity:0.796" fill="#c629e2" d="M 585.5,83.5 C 586.5,83.5 587.5,83.5 588.5,83.5C 589.338,83.8417 589.672,84.5084 589.5,85.5C 589.167,85.5 588.833,85.5 588.5,85.5C 586.821,85.7148 585.821,85.0481 585.5,83.5 Z"/></g>
<g><path style="opacity:1" fill="#c982d3" d="M 593.5,81.5 C 592.34,83.2027 593.007,83.8693 595.5,83.5C 593.898,85.0739 591.898,85.7406 589.5,85.5C 589.672,84.5084 589.338,83.8417 588.5,83.5C 589.93,82.4625 591.597,81.7959 593.5,81.5 Z"/></g>
<g><path style="opacity:1" fill="#c884d3" d="M 675.5,81.5 C 676.995,81.9887 678.329,82.6554 679.5,83.5C 677.302,83.4088 676.969,84.0755 678.5,85.5C 676.102,85.7406 674.102,85.0739 672.5,83.5C 674.179,83.7148 675.179,83.0481 675.5,81.5 Z"/></g>
<g><path style="opacity:1" fill="#bd31de" d="M 579.5,85.5 C 580.167,85.5 580.833,85.5 581.5,85.5C 582.833,85.5 583.5,86.1667 583.5,87.5C 582.833,87.5 582.167,87.5 581.5,87.5C 579.007,87.8693 578.34,87.2027 579.5,85.5 Z"/></g>
<g><path style="opacity:1" fill="#cd8cd8" d="M 585.5,83.5 C 585.821,85.0481 586.821,85.7148 588.5,85.5C 587.365,87.2132 585.698,87.8799 583.5,87.5C 583.5,86.1667 582.833,85.5 581.5,85.5C 582.514,84.3263 583.847,83.6596 585.5,83.5 Z"/></g>
<g><path style="opacity:0.053" fill="#f9dcf9" d="M 645.5,85.5 C 648.85,85.335 652.183,85.5017 655.5,86C 656.416,86.2784 657.082,86.7784 657.5,87.5C 653.295,87.2833 649.295,86.6167 645.5,85.5 Z"/></g>
<g><path style="opacity:0.827" fill="#c250d7" d="M 679.5,83.5 C 687.898,85.0356 695.898,87.7022 703.5,91.5C 703.672,92.4916 703.338,93.1583 702.5,93.5C 701.833,93.5 701.167,93.5 700.5,93.5C 700.027,92.0937 699.027,91.427 697.5,91.5C 696.833,91.5 696.167,91.5 695.5,91.5C 694.71,90.5987 693.71,89.9321 692.5,89.5C 691.5,89.5 690.5,89.5 689.5,89.5C 689.027,88.0937 688.027,87.427 686.5,87.5C 685.833,87.5 685.167,87.5 684.5,87.5C 683.486,86.3263 682.153,85.6596 680.5,85.5C 679.833,85.5 679.167,85.5 678.5,85.5C 676.969,84.0755 677.302,83.4088 679.5,83.5 Z"/></g>
<g><path style="opacity:0.133" fill="#ead1ef" d="M 619.5,85.5 C 617.095,86.7682 614.428,87.4349 611.5,87.5C 613.78,85.7773 616.447,85.1107 619.5,85.5 Z"/></g>
<g><path style="opacity:0.999" fill="#bd17df" d="M 619.5,85.5 C 628.167,85.5 636.833,85.5 645.5,85.5C 649.295,86.6167 653.295,87.2833 657.5,87.5C 658.5,87.5 659.5,87.5 660.5,87.5C 662.961,88.531 665.627,89.1977 668.5,89.5C 668.833,89.5 669.167,89.5 669.5,89.5C 671.657,90.4067 673.99,91.0733 676.5,91.5C 679.421,91.2826 682.087,91.9493 684.5,93.5C 685.671,94.3446 687.005,95.0113 688.5,95.5C 691.188,95.1658 693.521,95.8325 695.5,97.5C 696.29,98.4013 697.29,99.0679 698.5,99.5C 699.167,99.5 699.833,99.5 700.5,99.5C 700.973,100.906 701.973,101.573 703.5,101.5C 703.833,101.5 704.167,101.5 704.5,101.5C 704.973,102.906 705.973,103.573 707.5,103.5C 707.833,103.5 708.167,103.5 708.5,103.5C 708.833,104.5 709.5,105.167 710.5,105.5C 715.835,107.499 720.835,110.166 725.5,113.5C 725.821,115.048 726.821,115.715 728.5,115.5C 730.833,117.5 733.167,119.5 735.5,121.5C 735.833,122.5 736.5,123.167 737.5,123.5C 738.778,123.782 739.778,124.449 740.5,125.5C 740.833,126.5 741.5,127.167 742.5,127.5C 742.833,128.5 743.5,129.167 744.5,129.5C 744.833,130.5 745.5,131.167 746.5,131.5C 748.167,132.5 749.5,133.833 750.5,135.5C 750.833,136.5 751.5,137.167 752.5,137.5C 752.833,138.5 753.5,139.167 754.5,139.5C 755.878,140.545 756.878,141.878 757.5,143.5C 757.833,144.5 758.5,145.167 759.5,145.5C 796.745,194.88 804.578,248.88 783,307.5C 779.757,314.73 775.924,322.064 771.5,329.5C 770.5,329.833 769.833,330.5 769.5,331.5C 769.34,333.153 768.674,334.486 767.5,335.5C 766.5,335.833 765.833,336.5 765.5,337.5C 763.6,341.732 760.933,345.399 757.5,348.5C 756.094,348.973 755.427,349.973 755.5,351.5C 750.548,357.119 745.215,362.452 739.5,367.5C 737.736,369.278 735.736,370.611 733.5,371.5C 732.5,371.833 731.833,372.5 731.5,373.5C 731.167,373.5 730.833,373.5 730.5,373.5C 729.5,373.833 728.833,374.5 728.5,375.5C 726.853,377.326 724.853,378.66 722.5,379.5C 721.5,379.833 720.833,380.5 720.5,381.5C 720.167,381.5 719.833,381.5 719.5,381.5C 718.29,381.932 717.29,382.599 716.5,383.5C 716.167,383.5 715.833,383.5 715.5,383.5C 714.5,383.833 713.833,384.5 713.5,385.5C 709.523,388.322 705.19,390.322 700.5,391.5C 699.29,391.932 698.29,392.599 697.5,393.5C 696.833,393.5 696.167,393.5 695.5,393.5C 694.29,393.932 693.29,394.599 692.5,395.5C 691.833,395.5 691.167,395.5 690.5,395.5C 689.005,395.989 687.671,396.655 686.5,397.5C 686.167,397.5 685.833,397.5 685.5,397.5C 683.694,398.024 682.028,398.691 680.5,399.5C 679.833,399.5 679.167,399.5 678.5,399.5C 677.005,399.989 675.671,400.655 674.5,401.5C 673.5,401.5 672.5,401.5 671.5,401.5C 669.302,401.875 667.302,402.542 665.5,403.5C 664.167,403.5 662.833,403.5 661.5,403.5C 658.017,404.01 654.684,404.677 651.5,405.5C 649.5,405.5 647.5,405.5 645.5,405.5C 638.167,405.5 630.833,405.5 623.5,405.5C 620.5,405.5 617.5,405.5 614.5,405.5C 612.039,404.469 609.373,403.802 606.5,403.5C 605.5,403.5 604.5,403.5 603.5,403.5C 601.343,402.593 599.01,401.927 596.5,401.5C 595.5,401.5 594.5,401.5 593.5,401.5C 592.329,400.655 590.995,399.989 589.5,399.5C 586.261,399.587 583.261,398.92 580.5,397.5C 579.71,396.599 578.71,395.932 577.5,395.5C 576.833,395.5 576.167,395.5 575.5,395.5C 575.027,394.094 574.027,393.427 572.5,393.5C 571.833,393.5 571.167,393.5 570.5,393.5C 570.027,392.094 569.027,391.427 567.5,391.5C 567.167,391.5 566.833,391.5 566.5,391.5C 566.027,390.094 565.027,389.427 563.5,389.5C 561.486,389.608 559.82,388.942 558.5,387.5C 558.027,386.094 557.027,385.427 555.5,385.5C 552.926,384.536 550.593,383.203 548.5,381.5C 548.027,380.094 547.027,379.427 545.5,379.5C 544.222,379.218 543.222,378.551 542.5,377.5C 542.167,376.5 541.5,375.833 540.5,375.5C 540.167,375.5 539.833,375.5 539.5,375.5C 539.167,374.5 538.5,373.833 537.5,373.5C 534.38,372.088 531.714,370.088 529.5,367.5C 529.167,366.5 528.5,365.833 527.5,365.5C 527.167,364.5 526.5,363.833 525.5,363.5C 521.5,360.833 518.167,357.5 515.5,353.5C 515.167,352.5 514.5,351.833 513.5,351.5C 513.167,350.5 512.5,349.833 511.5,349.5C 504.85,342.202 499.184,334.202 494.5,325.5C 494.672,324.508 494.338,323.842 493.5,323.5C 486.978,311.947 482.311,299.947 479.5,287.5C 478.633,281.701 477.3,276.034 475.5,270.5C 475.5,269.5 475.5,268.5 475.5,267.5C 474.651,254.853 474.318,242.187 474.5,229.5C 474.833,226.833 475.167,224.167 475.5,221.5C 476.461,219.735 476.795,217.735 476.5,215.5C 478.762,203.33 482.429,191.664 487.5,180.5C 488.401,179.71 489.068,178.71 489.5,177.5C 496.717,160.196 507.384,144.863 521.5,131.5C 522.833,131.5 523.5,130.833 523.5,129.5C 524.873,127.793 526.539,126.46 528.5,125.5C 529.5,125.167 530.167,124.5 530.5,123.5C 531.873,121.793 533.539,120.46 535.5,119.5C 536.833,119.5 537.5,118.833 537.5,117.5C 538.605,116.4 539.938,115.733 541.5,115.5C 542.5,115.167 543.167,114.5 543.5,113.5C 545.45,111.535 547.784,110.201 550.5,109.5C 551.5,109.167 552.167,108.5 552.5,107.5C 553.82,106.058 555.486,105.392 557.5,105.5C 558.5,105.167 559.167,104.5 559.5,103.5C 560.167,103.5 560.833,103.5 561.5,103.5C 562.5,103.167 563.167,102.5 563.5,101.5C 564.167,101.5 564.833,101.5 565.5,101.5C 566.5,101.167 567.167,100.5 567.5,99.5C 568.167,99.5 568.833,99.5 569.5,99.5C 570.71,99.0679 571.71,98.4013 572.5,97.5C 572.833,97.5 573.167,97.5 573.5,97.5C 575.153,97.3404 576.486,96.6737 577.5,95.5C 578.167,95.5 578.833,95.5 579.5,95.5C 581.153,95.3404 582.486,94.6737 583.5,93.5C 584.167,93.5 584.833,93.5 585.5,93.5C 587.153,93.3404 588.486,92.6737 589.5,91.5C 590.5,91.5 591.5,91.5 592.5,91.5C 594.698,91.1249 596.698,90.4582 598.5,89.5C 598.833,89.5 599.167,89.5 599.5,89.5C 602.689,89.1417 605.689,88.475 608.5,87.5C 609.5,87.5 610.5,87.5 611.5,87.5C 614.428,87.4349 617.095,86.7682 619.5,85.5 Z M 565.5,234.5 C 559.167,234.5 552.833,234.5 546.5,234.5C 545.66,230.015 544.66,225.681 543.5,221.5C 543.244,219.208 543.577,217.041 544.5,215C 561.833,214.667 579.167,214.333 596.5,214C 597.416,213.626 598.25,213.126 599,212.5C 599.5,194.503 599.667,176.503 599.5,158.5C 606.167,158.5 612.833,158.5 619.5,158.5C 619.667,180.169 619.5,201.836 619,223.5C 616.695,229.808 612.195,232.974 605.5,233C 592.41,234.131 579.077,234.631 565.5,234.5 Z M 665.5,182.5 C 665.817,191.085 665.483,199.585 664.5,208C 665.229,210.058 666.229,211.891 667.5,213.5C 667.833,213.5 668.167,213.5 668.5,213.5C 675.444,214.995 682.444,215.329 689.5,214.5C 700.167,214.5 710.833,214.5 721.5,214.5C 721.5,221.167 721.5,227.833 721.5,234.5C 700.831,234.667 680.164,234.5 659.5,234C 652.361,232.194 647.861,227.694 646,220.5C 645.5,199.836 645.333,179.169 645.5,158.5C 652.167,158.5 658.833,158.5 665.5,158.5C 665.5,166.5 665.5,174.5 665.5,182.5 Z M 544.5,260.5 C 565.836,260.333 587.169,260.5 608.5,261C 612.948,263.114 616.448,266.281 619,270.5C 619.5,292.164 619.667,313.831 619.5,335.5C 612.788,336.189 606.121,336.189 599.5,335.5C 599.667,317.83 599.5,300.164 599,282.5C 598.5,282 598,281.5 597.5,281C 579.833,280.667 562.167,280.333 544.5,280C 543.644,273.373 543.644,266.873 544.5,260.5 Z M 721.5,260.5 C 721.5,267.167 721.5,273.833 721.5,280.5C 703.497,280.333 685.497,280.5 667.5,281C 666.748,281.671 666.414,282.504 666.5,283.5C 665.503,300.659 665.17,317.992 665.5,335.5C 659.167,335.5 652.833,335.5 646.5,335.5C 646.333,314.164 646.5,292.831 647,271.5C 648.63,266.703 651.797,263.37 656.5,261.5C 678.121,260.522 699.788,260.189 721.5,260.5 Z"/></g>
<g><path style="opacity:0.125" fill="#f2cbf3" d="M 680.5,85.5 C 682.153,85.6596 683.486,86.3263 684.5,87.5C 682.62,87.7709 681.287,87.1042 680.5,85.5 Z"/></g>
<g><path style="opacity:0.063" fill="#f9d0fa" d="M 608.5,87.5 C 605.689,88.475 602.689,89.1417 599.5,89.5C 602.123,87.7345 605.123,87.0679 608.5,87.5 Z"/></g>
<g><path style="opacity:0.086" fill="#f9d2f9" d="M 660.5,87.5 C 663.553,87.1107 666.22,87.7773 668.5,89.5C 665.627,89.1977 662.961,88.531 660.5,87.5 Z"/></g>
<g><path style="opacity:0.043" fill="#e4b0e5" d="M 579.5,85.5 C 578.34,87.2027 579.007,87.8693 581.5,87.5C 580.817,89.1765 579.483,89.8432 577.5,89.5C 577.5,88.1667 576.833,87.5 575.5,87.5C 576.514,86.3263 577.847,85.6596 579.5,85.5 Z"/></g>
<g><path style="opacity:0.025" fill="#f2daf4" d="M 686.5,87.5 C 688.027,87.427 689.027,88.0937 689.5,89.5C 687.821,89.7148 686.821,89.0481 686.5,87.5 Z"/></g>
<g><path style="opacity:0.094" fill="#efcdf1" d="M 576.5,89.5 C 575.713,91.1042 574.38,91.7709 572.5,91.5C 573.287,89.8958 574.62,89.2291 576.5,89.5 Z"/></g>
<g><path style="opacity:0.671" fill="#e5a6ed" d="M 598.5,89.5 C 596.698,90.4582 594.698,91.1249 592.5,91.5C 593.99,89.7202 595.99,89.0535 598.5,89.5 Z"/></g>
<g><path style="opacity:0.043" fill="#f7d2f8" d="M 669.5,89.5 C 671.527,89.3379 673.527,89.5045 675.5,90C 676.056,90.3826 676.389,90.8826 676.5,91.5C 673.99,91.0733 671.657,90.4067 669.5,89.5 Z"/></g>
<g><path style="opacity:0.02" fill="#f8dffc" d="M 692.5,89.5 C 693.71,89.9321 694.71,90.5987 695.5,91.5C 693.821,91.7148 692.821,91.0481 692.5,89.5 Z"/></g>
<g><path style="opacity:1" fill="#bb42d0" d="M 575.5,87.5 C 576.833,87.5 577.5,88.1667 577.5,89.5C 577.167,89.5 576.833,89.5 576.5,89.5C 574.62,89.2291 573.287,89.8958 572.5,91.5C 571.833,91.5 571.167,91.5 570.5,91.5C 568.973,91.427 567.973,92.0937 567.5,93.5C 567.167,93.5 566.833,93.5 566.5,93.5C 564.973,93.427 563.973,94.0937 563.5,95.5C 563.167,95.5 562.833,95.5 562.5,95.5C 560.973,95.427 559.973,96.0937 559.5,97.5C 558.833,97.5 558.167,97.5 557.5,97.5C 555.302,97.5912 554.969,96.9245 556.5,95.5C 562.433,92.0376 568.767,89.371 575.5,87.5 Z"/></g>
<g><path style="opacity:0.102" fill="#f6d0f8" d="M 570.5,91.5 C 570.179,93.0481 569.179,93.7148 567.5,93.5C 567.973,92.0937 568.973,91.427 570.5,91.5 Z"/></g>
<g><path style="opacity:0.38" fill="#e0c4e1" d="M 589.5,91.5 C 588.486,92.6737 587.153,93.3404 585.5,93.5C 586.287,91.8958 587.62,91.2291 589.5,91.5 Z"/></g>
<g><path style="opacity:0.153" fill="#f4d4f2" d="M 697.5,91.5 C 699.027,91.427 700.027,92.0937 700.5,93.5C 698.973,93.573 697.973,92.9063 697.5,91.5 Z"/></g>
<g><path style="opacity:0.057" fill="#f9d8fb" d="M 684.5,93.5 C 686.483,93.1568 687.817,93.8235 688.5,95.5C 687.005,95.0113 685.671,94.3446 684.5,93.5 Z"/></g>
<g><path style="opacity:0.094" fill="#f9d6fb" d="M 566.5,93.5 C 566.179,95.0481 565.179,95.7148 563.5,95.5C 563.973,94.0937 564.973,93.427 566.5,93.5 Z"/></g>
<g><path style="opacity:0.639" fill="#e3a9e7" d="M 583.5,93.5 C 582.486,94.6737 581.153,95.3404 579.5,95.5C 580.287,93.8958 581.62,93.2291 583.5,93.5 Z"/></g>
<g><path style="opacity:0.043" fill="#f3d8f5" d="M 562.5,95.5 C 562.027,96.9063 561.027,97.573 559.5,97.5C 559.973,96.0937 560.973,95.427 562.5,95.5 Z"/></g>
<g><path style="opacity:0.227" fill="#f7d5f7" d="M 577.5,95.5 C 576.486,96.6737 575.153,97.3404 573.5,97.5C 574.287,95.8958 575.62,95.2291 577.5,95.5 Z"/></g>
<g><path style="opacity:0.082" fill="#fbddf9" d="M 572.5,97.5 C 571.71,98.4013 570.71,99.0679 569.5,99.5C 569.821,97.9519 570.821,97.2852 572.5,97.5 Z"/></g>
<g><path style="opacity:0.216" fill="#eed1ed" d="M 695.5,97.5 C 697.179,97.2852 698.179,97.9519 698.5,99.5C 697.29,99.0679 696.29,98.4013 695.5,97.5 Z"/></g>
<g><path style="opacity:0.114" fill="#f4d9f4" d="M 567.5,99.5 C 567.167,100.5 566.5,101.167 565.5,101.5C 565.5,100.167 566.167,99.5 567.5,99.5 Z"/></g>
<g><path style="opacity:0.071" fill="#f2dbf3" d="M 700.5,99.5 C 702.179,99.2852 703.179,99.9519 703.5,101.5C 701.973,101.573 700.973,100.906 700.5,99.5 Z"/></g>
<g><path style="opacity:0.145" fill="#f2d2f2" d="M 563.5,101.5 C 563.167,102.5 562.5,103.167 561.5,103.5C 561.5,102.167 562.167,101.5 563.5,101.5 Z"/></g>
<g><path style="opacity:0.02" fill="#ebd1ed" d="M 704.5,101.5 C 706.027,101.427 707.027,102.094 707.5,103.5C 705.973,103.573 704.973,102.906 704.5,101.5 Z"/></g>
<g><path style="opacity:0.133" fill="#f4d8f7" d="M 559.5,103.5 C 559.167,104.5 558.5,105.167 557.5,105.5C 557.5,104.167 558.167,103.5 559.5,103.5 Z"/></g>
<g><path style="opacity:0.02" fill="#eecef0" d="M 708.5,103.5 C 709.833,103.5 710.5,104.167 710.5,105.5C 709.5,105.167 708.833,104.5 708.5,103.5 Z"/></g>
<g><path style="opacity:0.463" fill="#e7baee" d="M 720.5,103.5 C 722.027,103.427 723.027,104.094 723.5,105.5C 721.973,105.573 720.973,104.906 720.5,103.5 Z"/></g>
<g><path style="opacity:0.012" fill="#f0d7f3" d="M 547.5,103.5 C 547.5,104.833 546.833,105.5 545.5,105.5C 545.5,104.167 546.167,103.5 547.5,103.5 Z"/></g>
<g><path style="opacity:0.153" fill="#f7d4f7" d="M 552.5,107.5 C 552.167,108.5 551.5,109.167 550.5,109.5C 550.5,108.167 551.167,107.5 552.5,107.5 Z"/></g>
<g><path style="opacity:0.82" fill="#c764d8" d="M 703.5,91.5 C 736.023,106.017 761.356,128.684 779.5,159.5C 779.5,160.833 778.833,161.5 777.5,161.5C 771.476,151.461 764.476,142.128 756.5,133.5C 756.262,131.596 755.262,130.262 753.5,129.5C 753.167,128.5 752.5,127.833 751.5,127.5C 742.898,119.701 733.564,112.367 723.5,105.5C 723.027,104.094 722.027,103.427 720.5,103.5C 714.178,100.457 708.178,97.1234 702.5,93.5C 703.338,93.1583 703.672,92.4916 703.5,91.5 Z"/></g>
<g><path style="opacity:0.361" fill="#e7bcf0" d="M 543.5,113.5 C 543.167,114.5 542.5,115.167 541.5,115.5C 541.5,114.167 542.167,113.5 543.5,113.5 Z"/></g>
<g><path style="opacity:0.012" fill="#efd2f1" d="M 725.5,113.5 C 726.71,113.932 727.71,114.599 728.5,115.5C 726.821,115.715 725.821,115.048 725.5,113.5 Z"/></g>
<g><path style="opacity:0.569" fill="#d0b4ce" d="M 537.5,117.5 C 537.5,118.833 536.833,119.5 535.5,119.5C 535.833,118.5 536.5,117.833 537.5,117.5 Z"/></g>
<g><path style="opacity:0.031" fill="#f7d5fb" d="M 735.5,121.5 C 736.833,121.5 737.5,122.167 737.5,123.5C 736.5,123.167 735.833,122.5 735.5,121.5 Z"/></g>
<g><path style="opacity:0.196" fill="#f1cbf3" d="M 530.5,123.5 C 530.167,124.5 529.5,125.167 528.5,125.5C 528.5,124.167 529.167,123.5 530.5,123.5 Z"/></g>
<g><path style="opacity:0.02" fill="#ffeaff" d="M 740.5,125.5 C 741.833,125.5 742.5,126.167 742.5,127.5C 741.5,127.167 740.833,126.5 740.5,125.5 Z"/></g>
<g><path style="opacity:0.043" fill="#ffe0ff" d="M 742.5,127.5 C 743.833,127.5 744.5,128.167 744.5,129.5C 743.5,129.167 742.833,128.5 742.5,127.5 Z"/></g>
<g><path style="opacity:0.012" fill="#ffedff" d="M 751.5,127.5 C 752.5,127.833 753.167,128.5 753.5,129.5C 752.167,129.5 751.5,128.833 751.5,127.5 Z"/></g>
<g><path style="opacity:1" fill="#cc6adc" d="M 556.5,95.5 C 554.969,96.9245 555.302,97.5912 557.5,97.5C 554.845,100.41 551.512,102.41 547.5,103.5C 546.167,103.5 545.5,104.167 545.5,105.5C 520.318,121.971 500.984,142.637 487.5,167.5C 486.662,167.842 486.328,168.508 486.5,169.5C 484.553,174.33 482.219,178.997 479.5,183.5C 479.5,182.167 478.833,181.5 477.5,181.5C 489.994,151.718 509.327,127.218 535.5,108C 542.225,103.307 549.225,99.1402 556.5,95.5 Z"/></g>
<g><path style="opacity:0.031" fill="#fbd9fa" d="M 744.5,129.5 C 745.833,129.5 746.5,130.167 746.5,131.5C 745.5,131.167 744.833,130.5 744.5,129.5 Z"/></g>
<g><path style="opacity:0.525" fill="#d6b9d4" d="M 523.5,129.5 C 523.5,130.833 522.833,131.5 521.5,131.5C 521.833,130.5 522.5,129.833 523.5,129.5 Z"/></g>
<g><path style="opacity:0.031" fill="#fee3fe" d="M 753.5,129.5 C 755.262,130.262 756.262,131.596 756.5,133.5C 754.554,132.965 753.554,131.632 753.5,129.5 Z"/></g>
<g><path style="opacity:0.012" fill="#fff3ff" d="M 511.5,135.5 C 514.001,135.511 514.168,136.178 512,137.5C 511.536,136.906 511.369,136.239 511.5,135.5 Z"/></g>
<g><path style="opacity:0.043" fill="#ffddff" d="M 750.5,135.5 C 751.833,135.5 752.5,136.167 752.5,137.5C 751.5,137.167 750.833,136.5 750.5,135.5 Z"/></g>
<g><path style="opacity:0.043" fill="#ffe7ff" d="M 752.5,137.5 C 753.833,137.5 754.5,138.167 754.5,139.5C 753.5,139.167 752.833,138.5 752.5,137.5 Z"/></g>
<g><path style="opacity:0.025" fill="#ffe5ff" d="M 757.5,143.5 C 758.833,143.5 759.5,144.167 759.5,145.5C 758.5,145.167 757.833,144.5 757.5,143.5 Z"/></g>
<g><path style="opacity:0.012" fill="#fff1ff" d="M 487.5,167.5 C 489.031,168.925 488.698,169.591 486.5,169.5C 486.328,168.508 486.662,167.842 487.5,167.5 Z"/></g>
<g><path style="opacity:0.02" fill="#ffdbff" d="M 489.5,177.5 C 489.068,178.71 488.401,179.71 487.5,180.5C 487.285,178.821 487.952,177.821 489.5,177.5 Z"/></g>
<g><path style="opacity:1" fill="#c974d7" d="M 779.5,159.5 C 787.42,172.237 793.42,185.904 797.5,200.5C 796.883,200.389 796.383,200.056 796,199.5C 795.51,200.793 795.343,202.127 795.5,203.5C 791.186,188.863 785.186,174.863 777.5,161.5C 778.833,161.5 779.5,160.833 779.5,159.5 Z"/></g>
<g><path style="opacity:0.545" fill="#e0ace8" d="M 479.5,185.5 C 479.34,187.153 478.674,188.486 477.5,189.5C 477.157,187.517 477.824,186.183 479.5,185.5 Z"/></g>
<g><path style="opacity:1" fill="#c759da" d="M 477.5,181.5 C 478.833,181.5 479.5,182.167 479.5,183.5C 479.5,184.167 479.5,184.833 479.5,185.5C 477.824,186.183 477.157,187.517 477.5,189.5C 476.291,194.216 474.958,198.882 473.5,203.5C 471.952,203.179 471.285,202.179 471.5,200.5C 472.698,193.907 474.698,187.573 477.5,181.5 Z"/></g>
<g><path style="opacity:0.39" fill="#e192f1" d="M 665.5,182.5 C 666.237,192.691 666.904,203.024 667.5,213.5C 666.229,211.891 665.229,210.058 664.5,208C 665.483,199.585 665.817,191.085 665.5,182.5 Z"/></g>
<g><path style="opacity:1" fill="#bf2cdb" d="M 797.5,200.5 C 797.5,201.5 797.5,202.5 797.5,203.5C 797.5,204.833 796.833,205.5 795.5,205.5C 795.5,204.833 795.5,204.167 795.5,203.5C 795.343,202.127 795.51,200.793 796,199.5C 796.383,200.056 796.883,200.389 797.5,200.5 Z"/></g>
<g><path style="opacity:0.894" fill="#cc84d7" d="M 471.5,200.5 C 471.285,202.179 471.952,203.179 473.5,203.5C 473.405,205.786 472.738,207.786 471.5,209.5C 471.843,207.517 471.176,206.183 469.5,205.5C 469.796,203.597 470.463,201.93 471.5,200.5 Z"/></g>
<g><path style="opacity:0.916" fill="#cd80d4" d="M 797.5,203.5 C 798.537,204.93 799.204,206.597 799.5,208.5C 798.883,208.389 798.383,208.056 798,207.5C 797.51,208.793 797.343,210.127 797.5,211.5C 795.926,209.898 795.259,207.898 795.5,205.5C 796.833,205.5 797.5,204.833 797.5,203.5 Z"/></g>
<g><path style="opacity:1" fill="#c335e2" d="M 469.5,205.5 C 471.176,206.183 471.843,207.517 471.5,209.5C 471.5,210.167 471.5,210.833 471.5,211.5C 469.952,211.179 469.285,210.179 469.5,208.5C 469.5,207.5 469.5,206.5 469.5,205.5 Z"/></g>
<g><path style="opacity:1" fill="#bd2ed9" d="M 799.5,208.5 C 799.5,209.5 799.5,210.5 799.5,211.5C 799.843,213.483 799.176,214.817 797.5,215.5C 797.5,214.167 797.5,212.833 797.5,211.5C 797.343,210.127 797.51,208.793 798,207.5C 798.383,208.056 798.883,208.389 799.5,208.5 Z"/></g>
<g><path style="opacity:0.882" fill="#ce8cda" d="M 469.5,208.5 C 469.285,210.179 469.952,211.179 471.5,211.5C 471.59,214.152 470.924,216.485 469.5,218.5C 469.66,216.801 469.494,215.134 469,213.5C 468.722,214.416 468.222,215.082 467.5,215.5C 467.41,212.848 468.076,210.515 469.5,208.5 Z"/></g>
<g><path style="opacity:0.157" fill="#d1aad6" d="M 668.5,213.5 C 675.687,213.175 682.687,213.509 689.5,214.5C 682.444,215.329 675.444,214.995 668.5,213.5 Z"/></g>
<g><path style="opacity:0.733" fill="#c67fd1" d="M 799.5,211.5 C 800.531,213.961 801.198,216.627 801.5,219.5C 800.778,219.082 800.278,218.416 800,217.5C 799.506,219.134 799.34,220.801 799.5,222.5C 798.076,220.485 797.41,218.152 797.5,215.5C 799.176,214.817 799.843,213.483 799.5,211.5 Z"/></g>
<g><path style="opacity:0.145" fill="#fdd7ff" d="M 476.5,215.5 C 476.795,217.735 476.461,219.735 475.5,221.5C 475.739,219.533 475.406,217.699 474.5,216C 475.094,215.536 475.761,215.369 476.5,215.5 Z"/></g>
<g><path style="opacity:0.851" fill="#bc1ee2" d="M 801.5,219.5 C 801.5,220.833 801.5,222.167 801.5,223.5C 801.768,225.099 801.434,226.432 800.5,227.5C 800.5,226.833 800.167,226.5 799.5,226.5C 799.5,225.167 799.5,223.833 799.5,222.5C 799.34,220.801 799.506,219.134 800,217.5C 800.278,218.416 800.778,219.082 801.5,219.5 Z"/></g>
<g><path style="opacity:0.412" fill="#f2c4fa" d="M 469.5,223.5 C 469.63,228.809 468.963,234.142 467.5,239.5C 467.073,233.886 467.74,228.553 469.5,223.5 Z"/></g>
<g><path style="opacity:0.455" fill="#c08ccb" d="M 543.5,221.5 C 544.66,225.681 545.66,230.015 546.5,234.5C 552.833,234.5 559.167,234.5 565.5,234.5C 559.013,235.654 552.346,235.821 545.5,235C 543.752,230.706 543.085,226.206 543.5,221.5 Z"/></g>
<g><path style="opacity:0.31" fill="#ebb9f4" d="M 799.5,226.5 C 800.167,226.5 800.5,226.833 800.5,227.5C 800.766,233.833 801.1,240.166 801.5,246.5C 801.608,251.745 800.942,256.745 799.5,261.5C 800.668,249.839 800.668,238.172 799.5,226.5 Z"/></g>
<g><path style="opacity:1" fill="#bf50d5" d="M 801.5,223.5 C 803.051,230.934 803.718,238.6 803.5,246.5C 803.675,254.926 803.008,263.259 801.5,271.5C 799.824,270.817 799.157,269.483 799.5,267.5C 799.5,265.5 799.5,263.5 799.5,261.5C 800.942,256.745 801.608,251.745 801.5,246.5C 801.1,240.166 800.766,233.833 800.5,227.5C 801.434,226.432 801.768,225.099 801.5,223.5 Z"/></g>
<g><path style="opacity:0.895" fill="#c240dd" d="M 469.5,218.5 C 469.5,220.167 469.5,221.833 469.5,223.5C 467.74,228.553 467.073,233.886 467.5,239.5C 467.5,243.833 467.5,248.167 467.5,252.5C 467.666,256.846 467.499,261.179 467,265.5C 466.722,264.584 466.222,263.918 465.5,263.5C 464.172,247.419 464.839,231.419 467.5,215.5C 468.222,215.082 468.722,214.416 469,213.5C 469.494,215.134 469.66,216.801 469.5,218.5 Z"/></g>
<g><path style="opacity:0.52" fill="#c67dd6" d="M 721.5,260.5 C 699.788,260.189 678.121,260.522 656.5,261.5C 656.611,260.883 656.944,260.383 657.5,260C 679.004,259.171 700.337,259.337 721.5,260.5 Z"/></g>
<g><path style="opacity:0.047" fill="#f5d2f8" d="M 474.5,229.5 C 474.318,242.187 474.651,254.853 475.5,267.5C 474.778,267.082 474.278,266.416 474,265.5C 473.667,266.833 473.333,268.167 473,269.5C 473.052,256.018 473.552,242.685 474.5,229.5 Z"/></g>
<g><path style="opacity:0.757" fill="#d18ddd" d="M 467.5,252.5 C 468.636,258.641 469.303,264.974 469.5,271.5C 468.71,270.391 468.21,269.058 468,267.5C 467.51,268.793 467.343,270.127 467.5,271.5C 466.469,269.039 465.802,266.373 465.5,263.5C 466.222,263.918 466.722,264.584 467,265.5C 467.499,261.179 467.666,256.846 467.5,252.5 Z"/></g>
<g><path style="opacity:1" fill="#cb72d9" d="M 799.5,267.5 C 799.157,269.483 799.824,270.817 801.5,271.5C 801.324,274.727 800.657,277.727 799.5,280.5C 799.633,277.075 798.967,276.742 797.5,279.5C 797.198,275.21 797.864,271.21 799.5,267.5 Z"/></g>
<g><path style="opacity:1" fill="#b823d8" d="M 469.5,271.5 C 469.975,274.082 469.308,276.082 467.5,277.5C 467.5,275.5 467.5,273.5 467.5,271.5C 467.343,270.127 467.51,268.793 468,267.5C 468.21,269.058 468.71,270.391 469.5,271.5 Z"/></g>
<g><path style="opacity:0.071" fill="#f0d2f1" d="M 475.5,270.5 C 477.3,276.034 478.633,281.701 479.5,287.5C 478.063,283.892 476.563,280.225 475,276.5C 474.211,274.288 474.378,272.288 475.5,270.5 Z"/></g>
<g><path style="opacity:0.796" fill="#d188d9" d="M 469.5,271.5 C 471.417,274.338 472.084,277.338 471.5,280.5C 470.094,280.973 469.427,281.973 469.5,283.5C 468.542,281.698 467.875,279.698 467.5,277.5C 469.308,276.082 469.975,274.082 469.5,271.5 Z"/></g>
<g><path style="opacity:1" fill="#bf2ae4" d="M 471.5,280.5 C 471.5,281.5 471.5,282.5 471.5,283.5C 471.5,284.833 470.833,285.5 469.5,285.5C 469.5,284.833 469.5,284.167 469.5,283.5C 469.427,281.973 470.094,280.973 471.5,280.5 Z"/></g>
<g><path style="opacity:0.208" fill="#f7cffc" d="M 797.5,280.5 C 797.598,282.553 796.931,284.22 795.5,285.5C 795.12,283.302 795.787,281.635 797.5,280.5 Z"/></g>
<g><path style="opacity:0.2" fill="#ffbffe" d="M 666.5,283.5 C 666.5,301.167 666.5,318.833 666.5,336.5C 659.646,336.824 652.979,336.491 646.5,335.5C 652.833,335.5 659.167,335.5 665.5,335.5C 665.17,317.992 665.503,300.659 666.5,283.5 Z"/></g>
<g><path style="opacity:1" fill="#cc77d7" d="M 471.5,283.5 C 473.074,285.102 473.741,287.102 473.5,289.5C 472.167,289.5 471.5,290.167 471.5,291.5C 470.542,289.698 469.875,287.698 469.5,285.5C 470.833,285.5 471.5,284.833 471.5,283.5 Z"/></g>
<g><path style="opacity:1" fill="#bb2bd9" d="M 473.5,289.5 C 473.5,290.167 473.5,290.833 473.5,291.5C 473.5,292.833 472.833,293.5 471.5,293.5C 471.5,292.833 471.5,292.167 471.5,291.5C 471.5,290.167 472.167,289.5 473.5,289.5 Z"/></g>
<g><path style="opacity:0.247" fill="#f6caf9" d="M 795.5,287.5 C 795.741,289.898 795.074,291.898 793.5,293.5C 793.259,291.102 793.926,289.102 795.5,287.5 Z"/></g>
<g><path style="opacity:0.886" fill="#c87cd5" d="M 473.5,291.5 C 474.674,292.514 475.34,293.847 475.5,295.5C 474.167,295.5 473.5,296.167 473.5,297.5C 472.326,296.486 471.66,295.153 471.5,293.5C 472.833,293.5 473.5,292.833 473.5,291.5 Z"/></g>
<g><path style="opacity:1" fill="#c32fe4" d="M 475.5,295.5 C 475.5,296.167 475.5,296.833 475.5,297.5C 475.5,298.833 474.833,299.5 473.5,299.5C 473.5,298.833 473.5,298.167 473.5,297.5C 473.5,296.167 474.167,295.5 475.5,295.5 Z"/></g>
<g><path style="opacity:1" fill="#e6afeb" d="M 477.5,303.5 C 479.176,304.183 479.843,305.517 479.5,307.5C 478.326,306.486 477.66,305.153 477.5,303.5 Z"/></g>
<g><path style="opacity:0.057" fill="#f6d5fa" d="M 479.5,308.5 C 480.906,308.973 481.573,309.973 481.5,311.5C 480.094,311.027 479.427,310.027 479.5,308.5 Z"/></g>
<g><path style="opacity:0.031" fill="#ffeeff" d="M 493.5,323.5 C 494.338,323.842 494.672,324.508 494.5,325.5C 492.302,325.591 491.969,324.925 493.5,323.5 Z"/></g>
<g><path style="opacity:0.012" fill="#ffe3ff" d="M 771.5,329.5 C 771.5,330.833 770.833,331.5 769.5,331.5C 769.833,330.5 770.5,329.833 771.5,329.5 Z"/></g>
<g><path style="opacity:0.012" fill="#ffe5ff" d="M 493.5,334.5 C 494.906,334.973 495.573,335.973 495.5,337.5C 494.094,337.027 493.427,336.027 493.5,334.5 Z"/></g>
<g><path style="opacity:0.012" fill="#fadbfe" d="M 767.5,335.5 C 767.5,336.833 766.833,337.5 765.5,337.5C 765.833,336.5 766.5,335.833 767.5,335.5 Z"/></g>
<g><path style="opacity:0.02" fill="#fdd7f7" d="M 757.5,348.5 C 757.573,350.027 756.906,351.027 755.5,351.5C 755.427,349.973 756.094,348.973 757.5,348.5 Z"/></g>
<g><path style="opacity:0.02" fill="#ffeaff" d="M 511.5,349.5 C 512.5,349.833 513.167,350.5 513.5,351.5C 512.167,351.5 511.5,350.833 511.5,349.5 Z"/></g>
<g><path style="opacity:0.102" fill="#ffc9ff" d="M 513.5,351.5 C 514.5,351.833 515.167,352.5 515.5,353.5C 514.167,353.5 513.5,352.833 513.5,351.5 Z"/></g>
<g><path style="opacity:0.012" fill="#ffecff" d="M 514.5,361.5 C 515.833,361.5 516.5,362.167 516.5,363.5C 515.5,363.167 514.833,362.5 514.5,361.5 Z"/></g>
<g><path style="opacity:0.051" fill="#f6caf7" d="M 525.5,363.5 C 526.5,363.833 527.167,364.5 527.5,365.5C 526.167,365.5 525.5,364.833 525.5,363.5 Z"/></g>
<g><path style="opacity:0.071" fill="#fed3fe" d="M 527.5,365.5 C 528.5,365.833 529.167,366.5 529.5,367.5C 528.167,367.5 527.5,366.833 527.5,365.5 Z"/></g>
<g><path style="opacity:0.031" fill="#f6d8fa" d="M 733.5,371.5 C 733.5,372.833 732.833,373.5 731.5,373.5C 731.833,372.5 732.5,371.833 733.5,371.5 Z"/></g>
<g><path style="opacity:0.063" fill="#f8d4f7" d="M 537.5,373.5 C 538.5,373.833 539.167,374.5 539.5,375.5C 538.167,375.5 537.5,374.833 537.5,373.5 Z"/></g>
<g><path style="opacity:0.082" fill="#f1bcf2" d="M 730.5,373.5 C 730.5,374.833 729.833,375.5 728.5,375.5C 728.833,374.5 729.5,373.833 730.5,373.5 Z"/></g>
<g><path style="opacity:1" fill="#c967d9" d="M 799.5,280.5 C 786.627,336.218 754.294,376.385 702.5,401C 698.244,402.807 693.911,404.307 689.5,405.5C 687.973,405.573 686.973,404.906 686.5,403.5C 688.882,401.954 691.549,401.287 694.5,401.5C 696.027,401.573 697.027,400.906 697.5,399.5C 734.26,383.881 762.093,358.881 781,324.5C 786.246,314.594 790.413,304.261 793.5,293.5C 795.074,291.898 795.741,289.898 795.5,287.5C 795.5,286.833 795.5,286.167 795.5,285.5C 796.931,284.22 797.598,282.553 797.5,280.5C 797.5,280.167 797.5,279.833 797.5,279.5C 798.967,276.742 799.633,277.075 799.5,280.5 Z"/></g>
<g><path style="opacity:0.051" fill="#f2c5ed" d="M 540.5,375.5 C 541.5,375.833 542.167,376.5 542.5,377.5C 541.167,377.5 540.5,376.833 540.5,375.5 Z"/></g>
<g><path style="opacity:0.051" fill="#e8cee7" d="M 535.5,379.5 C 536.833,379.5 537.5,380.167 537.5,381.5C 537.5,380.167 536.833,379.5 535.5,379.5 Z"/></g>
<g><path style="opacity:0.392" fill="#f1aff4" d="M 545.5,379.5 C 547.027,379.427 548.027,380.094 548.5,381.5C 546.973,381.573 545.973,380.906 545.5,379.5 Z"/></g>
<g><path style="opacity:0.031" fill="#fbdff7" d="M 722.5,379.5 C 722.5,380.833 721.833,381.5 720.5,381.5C 720.833,380.5 721.5,379.833 722.5,379.5 Z"/></g>
<g><path style="opacity:0.02" fill="#fdddfe" d="M 719.5,381.5 C 719.179,383.048 718.179,383.715 716.5,383.5C 717.29,382.599 718.29,381.932 719.5,381.5 Z"/></g>
<g><path style="opacity:0.051" fill="#f4d3f7" d="M 540.5,383.5 C 542.027,383.427 543.027,384.094 543.5,385.5C 541.973,385.573 540.973,384.906 540.5,383.5 Z"/></g>
<g><path style="opacity:0.043" fill="#f0c8f1" d="M 715.5,383.5 C 715.5,384.833 714.833,385.5 713.5,385.5C 713.833,384.5 714.5,383.833 715.5,383.5 Z"/></g>
<g><path style="opacity:0.38" fill="#f1a7f7" d="M 555.5,385.5 C 557.027,385.427 558.027,386.094 558.5,387.5C 556.973,387.573 555.973,386.906 555.5,385.5 Z"/></g>
<g><path style="opacity:0.216" fill="#e2bcdb" d="M 547.5,387.5 C 548.833,387.5 549.5,388.167 549.5,389.5C 549.5,388.167 548.833,387.5 547.5,387.5 Z"/></g>
<g><path style="opacity:0.082" fill="#eec8ef" d="M 563.5,389.5 C 565.027,389.427 566.027,390.094 566.5,391.5C 564.821,391.715 563.821,391.048 563.5,389.5 Z"/></g>
<g><path style="opacity:0.196" fill="#f1c4f1" d="M 567.5,391.5 C 569.027,391.427 570.027,392.094 570.5,393.5C 568.973,393.573 567.973,392.906 567.5,391.5 Z"/></g>
<g><path style="opacity:0.012" fill="#f7ddf7" d="M 700.5,391.5 C 700.179,393.048 699.179,393.715 697.5,393.5C 698.29,392.599 699.29,391.932 700.5,391.5 Z"/></g>
<g><path style="opacity:0.153" fill="#edd1ef" d="M 557.5,393.5 C 559.179,393.285 560.179,393.952 560.5,395.5C 558.973,395.573 557.973,394.906 557.5,393.5 Z"/></g>
<g><path style="opacity:0.267" fill="#ebb2ee" d="M 572.5,393.5 C 574.027,393.427 575.027,394.094 575.5,395.5C 573.973,395.573 572.973,394.906 572.5,393.5 Z"/></g>
<g><path style="opacity:0.051" fill="#f5caf6" d="M 695.5,393.5 C 695.179,395.048 694.179,395.715 692.5,395.5C 693.29,394.599 694.29,393.932 695.5,393.5 Z"/></g>
<g><path style="opacity:0.012" fill="#f9e4fa" d="M 577.5,395.5 C 578.71,395.932 579.71,396.599 580.5,397.5C 578.821,397.715 577.821,397.048 577.5,395.5 Z"/></g>
<g><path style="opacity:0.051" fill="#f8ccf7" d="M 690.5,395.5 C 689.817,397.176 688.483,397.843 686.5,397.5C 687.671,396.655 689.005,395.989 690.5,395.5 Z"/></g>
<g><path style="opacity:0.051" fill="#fed9fe" d="M 685.5,397.5 C 684.448,399.256 682.781,399.923 680.5,399.5C 682.028,398.691 683.694,398.024 685.5,397.5 Z"/></g>
<g><path style="opacity:1" fill="#c45cd8" d="M 475.5,297.5 C 477.074,299.102 477.741,301.102 477.5,303.5C 477.66,305.153 478.326,306.486 479.5,307.5C 479.5,307.833 479.5,308.167 479.5,308.5C 479.427,310.027 480.094,311.027 481.5,311.5C 484.726,319.621 488.726,327.288 493.5,334.5C 493.427,336.027 494.094,337.027 495.5,337.5C 501.475,345.806 507.809,353.806 514.5,361.5C 514.833,362.5 515.5,363.167 516.5,363.5C 522.506,369.168 528.839,374.501 535.5,379.5C 535.5,380.833 536.167,381.5 537.5,381.5C 539.027,381.427 540.027,382.094 540.5,383.5C 540.973,384.906 541.973,385.573 543.5,385.5C 545.199,385.527 546.533,386.194 547.5,387.5C 547.5,388.833 548.167,389.5 549.5,389.5C 552.333,390.5 555,391.833 557.5,393.5C 557.973,394.906 558.973,395.573 560.5,395.5C 564.198,396.677 567.864,398.01 571.5,399.5C 571.821,401.048 572.821,401.715 574.5,401.5C 574.833,401.5 575.167,401.5 575.5,401.5C 576.514,402.674 577.847,403.34 579.5,403.5C 582.451,403.287 585.118,403.954 587.5,405.5C 587.179,407.048 586.179,407.715 584.5,407.5C 529.896,389.68 492.896,353.68 473.5,299.5C 474.833,299.5 475.5,298.833 475.5,297.5 Z"/></g>
<g><path style="opacity:0.025" fill="#f0d8f3" d="M 571.5,399.5 C 573.179,399.285 574.179,399.952 574.5,401.5C 572.821,401.715 571.821,401.048 571.5,399.5 Z"/></g>
<g><path style="opacity:0.071" fill="#fde3fe" d="M 589.5,399.5 C 590.995,399.989 592.329,400.655 593.5,401.5C 591.517,401.843 590.183,401.176 589.5,399.5 Z"/></g>
<g><path style="opacity:0.02" fill="#f9dffa" d="M 678.5,399.5 C 677.817,401.176 676.483,401.843 674.5,401.5C 675.671,400.655 677.005,399.989 678.5,399.5 Z"/></g>
<g><path style="opacity:0.486" fill="#deb4e1" d="M 697.5,399.5 C 697.027,400.906 696.027,401.573 694.5,401.5C 694.973,400.094 695.973,399.427 697.5,399.5 Z"/></g>
<g><path style="opacity:0.012" fill="#f3d9f6" d="M 575.5,401.5 C 577.483,401.157 578.817,401.824 579.5,403.5C 577.847,403.34 576.514,402.674 575.5,401.5 Z"/></g>
<g><path style="opacity:0.063" fill="#fbd6fc" d="M 596.5,401.5 C 599.01,401.927 601.343,402.593 603.5,403.5C 601.473,403.662 599.473,403.495 597.5,403C 596.944,402.617 596.611,402.117 596.5,401.5 Z"/></g>
<g><path style="opacity:0.063" fill="#f9dffb" d="M 671.5,401.5 C 669.83,403.613 667.83,404.28 665.5,403.5C 667.302,402.542 669.302,401.875 671.5,401.5 Z"/></g>
<g><path style="opacity:0.125" fill="#fbd7fb" d="M 606.5,403.5 C 609.373,403.802 612.039,404.469 614.5,405.5C 611.447,405.889 608.78,405.223 606.5,403.5 Z"/></g>
<g><path style="opacity:0.02" fill="#fad7fb" d="M 661.5,403.5 C 661.389,404.117 661.056,404.617 660.5,405C 657.518,405.498 654.518,405.665 651.5,405.5C 654.684,404.677 658.017,404.01 661.5,403.5 Z"/></g>
<g><path style="opacity:1" fill="#e4cae9" d="M 623.5,405.5 C 630.833,405.5 638.167,405.5 645.5,405.5C 641.901,406.74 638.068,407.406 634,407.5C 631.46,407.038 629.127,407.038 627,407.5C 625.698,406.915 624.531,406.249 623.5,405.5 Z"/></g>
<g><path style="opacity:0.922" fill="#c018dc" d="M 681.5,405.5 C 681.833,405.5 682.167,405.5 682.5,405.5C 684.179,405.285 685.179,405.952 685.5,407.5C 684.833,407.5 684.167,407.5 683.5,407.5C 681.007,407.869 680.34,407.203 681.5,405.5 Z"/></g>
<g><path style="opacity:0.741" fill="#c785d2" d="M 686.5,403.5 C 686.973,404.906 687.973,405.573 689.5,405.5C 688.486,406.674 687.153,407.34 685.5,407.5C 685.179,405.952 684.179,405.285 682.5,405.5C 683.287,403.896 684.62,403.229 686.5,403.5 Z"/></g>
<g><path style="opacity:0.788" fill="#c782cf" d="M 587.5,405.5 C 589.698,405.12 591.365,405.787 592.5,407.5C 591.127,407.343 589.793,407.51 588.5,408C 589.056,408.383 589.389,408.883 589.5,409.5C 587.597,409.204 585.93,408.537 584.5,407.5C 586.179,407.715 587.179,407.048 587.5,405.5 Z"/></g>
<g><path style="opacity:0.765" fill="#c883d3" d="M 681.5,405.5 C 680.34,407.203 681.007,407.869 683.5,407.5C 682.07,408.537 680.403,409.204 678.5,409.5C 678.611,408.883 678.944,408.383 679.5,408C 678.207,407.51 676.873,407.343 675.5,407.5C 676.99,405.72 678.99,405.054 681.5,405.5 Z"/></g>
<g><path style="opacity:0.843" fill="#ba29d6" d="M 592.5,407.5 C 593.167,407.5 593.833,407.5 594.5,407.5C 595.66,409.203 594.993,409.869 592.5,409.5C 591.5,409.5 590.5,409.5 589.5,409.5C 589.389,408.883 589.056,408.383 588.5,408C 589.793,407.51 591.127,407.343 592.5,407.5 Z"/></g>
<g><path style="opacity:1" fill="#c684ce" d="M 672.5,407.5 C 672.973,408.906 673.973,409.573 675.5,409.5C 674.07,410.537 672.403,411.204 670.5,411.5C 670.5,410.167 669.833,409.5 668.5,409.5C 669.183,407.824 670.517,407.157 672.5,407.5 Z"/></g>
<g><path style="opacity:0.867" fill="#c630e5" d="M 672.5,407.5 C 673.5,407.5 674.5,407.5 675.5,407.5C 676.873,407.343 678.207,407.51 679.5,408C 678.944,408.383 678.611,408.883 678.5,409.5C 677.5,409.5 676.5,409.5 675.5,409.5C 673.973,409.573 672.973,408.906 672.5,407.5 Z"/></g>
<g><path style="opacity:0.757" fill="#cc8cd6" d="M 594.5,407.5 C 597.01,407.054 599.01,407.72 600.5,409.5C 599.127,409.343 597.793,409.51 596.5,410C 597.056,410.383 597.389,410.883 597.5,411.5C 595.597,411.204 593.93,410.537 592.5,409.5C 594.993,409.869 595.66,409.203 594.5,407.5 Z"/></g>
<g><path style="opacity:0.063" fill="#f4d9f2" d="M 605.5,409.5 C 608.877,409.068 611.877,409.735 614.5,411.5C 611.219,411.58 608.219,410.913 605.5,409.5 Z"/></g>
<g><path style="opacity:0.114" fill="#f5dcf2" d="M 662.5,409.5 C 662.5,409.833 662.5,410.167 662.5,410.5C 660.585,410.216 658.919,410.549 657.5,411.5C 656.5,411.5 655.5,411.5 654.5,411.5C 656.78,409.777 659.447,409.111 662.5,409.5 Z"/></g>
<g><path style="opacity:0.82" fill="#cb36e6" d="M 662.5,410.5 C 662.5,410.167 662.5,409.833 662.5,409.5C 664.5,409.5 666.5,409.5 668.5,409.5C 669.833,409.5 670.5,410.167 670.5,411.5C 669.5,411.5 668.5,411.5 667.5,411.5C 665.708,411.634 664.042,411.301 662.5,410.5 Z"/></g>
<g><path style="opacity:0.757" fill="#b46dc2" d="M 657.5,411.5 C 658.919,410.549 660.585,410.216 662.5,410.5C 664.042,411.301 665.708,411.634 667.5,411.5C 665.039,412.531 662.373,413.198 659.5,413.5C 660.66,411.797 659.993,411.131 657.5,411.5 Z"/></g>
<g><path style="opacity:0.749" fill="#b64cca" d="M 600.5,409.5 C 602.167,409.5 603.833,409.5 605.5,409.5C 608.219,410.913 611.219,411.58 614.5,411.5C 616.167,411.5 617.833,411.5 619.5,411.5C 629.492,414.084 639.492,414.084 649.5,411.5C 651.167,411.5 652.833,411.5 654.5,411.5C 655.5,411.5 656.5,411.5 657.5,411.5C 659.993,411.131 660.66,411.797 659.5,413.5C 638.723,416.452 618.056,415.785 597.5,411.5C 597.389,410.883 597.056,410.383 596.5,410C 597.793,409.51 599.127,409.343 600.5,409.5 Z"/></g>
<g><path style="opacity:1" fill="#d09bd7" d="M 619.5,411.5 C 629.5,411.5 639.5,411.5 649.5,411.5C 639.492,414.084 629.492,414.084 619.5,411.5 Z"/></g>
<g><path style="opacity:1" fill="#030303" d="M 207.5,508.5 C 234.169,508.333 260.835,508.5 287.5,509C 288.487,520.085 288.821,531.252 288.5,542.5C 261.5,542.5 234.5,542.5 207.5,542.5C 207.5,531.167 207.5,519.833 207.5,508.5 Z"/></g>
<g><path style="opacity:1" fill="#010101" d="M 510.5,562.5 C 538.984,560.099 562.984,569.099 582.5,589.5C 575.395,598.723 568.062,607.723 560.5,616.5C 550.594,607.798 539.094,602.465 526,600.5C 513.739,600.927 507.239,607.261 506.5,619.5C 507.104,627.875 511.104,634.042 518.5,638C 535.395,645.112 551.395,653.779 566.5,664C 577.56,673.282 584.06,685.116 586,699.5C 591.203,733.934 578.369,758.768 547.5,774C 508.377,787.051 474.377,779.051 445.5,750C 453.296,740.536 461.462,731.369 470,722.5C 479.705,731.937 491.205,738.104 504.5,741C 516.241,743.805 524.741,739.972 530,729.5C 534.941,714.318 530.775,702.485 517.5,694C 501.905,687.539 487.238,679.539 473.5,670C 453.599,652.215 447.432,630.382 455,604.5C 465.017,579.319 483.517,565.319 510.5,562.5 Z"/></g>
<g><path style="opacity:0.998" fill="#000000" d="M 946.5,567.5 C 967.5,567.5 988.5,567.5 1009.5,567.5C 1025.52,636.236 1041.85,704.903 1058.5,773.5C 1040.51,774.5 1022.51,774.833 1004.5,774.5C 1002.66,760.46 1000.49,746.46 998,732.5C 991.244,731.842 984.41,731.509 977.5,731.5C 970.59,731.509 963.756,731.842 957,732.5C 954.723,746.494 952.556,760.494 950.5,774.5C 932.821,774.833 915.154,774.5 897.5,773.5C 914.149,704.903 930.483,636.236 946.5,567.5 Z M 975.5,625.5 C 976.456,627.548 977.456,629.548 978.5,631.5C 979.263,633.368 980.263,635.035 981.5,636.5C 985.369,655.377 988.702,674.377 991.5,693.5C 982.143,693.832 972.81,693.498 963.5,692.5C 966.24,678.272 968.573,664.272 970.5,650.5C 971.117,650.611 971.617,650.944 972,651.5C 972.765,649.934 972.598,648.601 971.5,647.5C 971.989,639.887 973.322,632.554 975.5,625.5 Z"/></g>
<g><path style="opacity:1" fill="#010101" d="M 221.5,567.5 C 239.077,567.175 256.577,567.508 274,568.5C 274.5,637.166 274.667,705.833 274.5,774.5C 256.833,774.5 239.167,774.5 221.5,774.5C 221.5,705.5 221.5,636.5 221.5,567.5 Z"/></g>
<g><path style="opacity:1" fill="#000000" d="M 296.5,567.5 C 313.833,567.5 331.167,567.5 348.5,567.5C 348.5,636.5 348.5,705.5 348.5,774.5C 331.167,774.5 313.833,774.5 296.5,774.5C 296.5,705.5 296.5,636.5 296.5,567.5 Z"/></g>
<g><path style="opacity:1" fill="#010101" d="M 398.5,567.5 C 415.5,567.5 432.5,567.5 449.5,567.5C 434.136,598.56 418.47,629.56 402.5,660.5C 419.705,698.408 437.038,736.242 454.5,774C 435.26,774.826 416.093,774.659 397,773.5C 381.206,737.284 365.706,700.951 350.5,664.5C 366.239,632.022 382.239,599.689 398.5,567.5 Z"/></g>
<g><path style="opacity:0.998" fill="#010101" d="M 633.5,567.5 C 654.169,567.333 674.836,567.5 695.5,568C 712.323,636.625 728.99,705.292 745.5,774C 727.503,774.5 709.503,774.667 691.5,774.5C 689.382,760.458 687.049,746.458 684.5,732.5C 670.85,731.501 657.183,731.167 643.5,731.5C 641.5,745.832 639.5,760.165 637.5,774.5C 619.833,774.5 602.167,774.5 584.5,774.5C 600.706,705.472 617.039,636.472 633.5,567.5 Z M 663.5,612.5 C 664.167,613.167 664.833,613.833 665.5,614.5C 669.392,640.85 673.392,667.183 677.5,693.5C 668.494,693.666 659.494,693.5 650.5,693C 655.423,666.294 659.756,639.461 663.5,612.5 Z"/></g>
<g><path style="opacity:0.999" fill="#000000" d="M 751.5,567.5 C 772.844,567.167 794.177,567.5 815.5,568.5C 826.935,616.837 838.435,665.171 850,713.5C 849.152,701.857 848.152,690.19 847,678.5C 846.5,641.502 846.333,604.502 846.5,567.5C 861.412,567.176 876.245,567.509 891,568.5C 891.5,637.166 891.667,705.833 891.5,774.5C 869.833,774.5 848.167,774.5 826.5,774.5C 815.16,725.473 803.66,676.473 792,627.5C 793.395,643.789 794.728,660.122 796,676.5C 796.5,709.165 796.667,741.832 796.5,774.5C 781.5,774.5 766.5,774.5 751.5,774.5C 751.5,705.5 751.5,636.5 751.5,567.5 Z"/></g>
<g><path style="opacity:0.133" fill="#676767" d="M 665.5,614.5 C 664.833,613.833 664.167,613.167 663.5,612.5C 663.34,610.801 663.506,609.134 664,607.5C 664.977,609.74 665.477,612.073 665.5,614.5 Z"/></g>
<g><path style="opacity:1" fill="#d5d5d5" d="M 981.5,636.5 C 980.263,635.035 979.263,633.368 978.5,631.5C 977.456,629.548 976.456,627.548 975.5,625.5C 975.389,624.883 975.056,624.383 974.5,624C 975.443,619.854 976.443,615.687 977.5,611.5C 979.591,619.713 980.924,628.046 981.5,636.5 Z"/></g>
<g><path style="opacity:0.027" fill="#8d8d8d" d="M 971.5,647.5 C 972.598,648.601 972.765,649.934 972,651.5C 971.617,650.944 971.117,650.611 970.5,650.5C 970.5,649.833 970.5,649.167 970.5,648.5C 971.167,648.5 971.5,648.167 971.5,647.5 Z"/></g>
<g><path style="opacity:1" fill="#010101" d="M 512.5,791.5 C 528.188,789.754 539.021,796.087 545,810.5C 548.405,837.429 536.572,849.595 509.5,847C 495.339,841.821 488.839,831.655 490,816.5C 492.153,803.188 499.653,794.854 512.5,791.5 Z"/></g>
<g><path style="opacity:1" fill="#010101" d="M 816.5,791.5 C 840.288,791.122 851.122,802.789 849,826.5C 843.21,843.486 831.376,850.32 813.5,847C 795.023,839.195 789.19,825.695 796,806.5C 800.76,798.561 807.593,793.561 816.5,791.5 Z"/></g>
</svg>
